<?xml version="1.0" encoding="UTF-8" standalone="no"?>
<!DOCTYPE svg PUBLIC "-//W3C//DTD SVG 1.1//EN" "http://www.w3.org/Graphics/SVG/1.1/DTD/svg11.dtd">
<svg width="100%" height="100%" viewBox="0 0 1024 1024" version="1.1" xmlns="http://www.w3.org/2000/svg" xmlns:xlink="http://www.w3.org/1999/xlink" xml:space="preserve" xmlns:serif="http://www.serif.com/" style="fill-rule:evenodd;clip-rule:evenodd;stroke-linejoin:round;stroke-miterlimit:2;">
    <rect x="0" y="0" width="1024" height="1024" style="fill:rgb(24,24,24);fill-rule:nonzero;"/>
    <g transform="matrix(1,0,0,1,-5,0)">
        <path d="M663.745,108.206C711.55,102.306 782.29,136.917 831.085,145.674C841.065,147.464 852.01,148.812 862.165,147.923C867.14,147.487 872.26,145.97 877.25,146.083C878.89,146.121 880.555,146.656 881.635,147.948C882.965,149.547 883.735,151.695 883.46,153.766C882.82,158.597 876.73,167.227 874.15,171.552C849.49,212.908 818.23,245.245 779.895,274.032C736.14,306.885 685.435,327.603 630.02,319.685C597.45,315.03 569.095,299.9 547.5,274.938C540.625,266.988 534.875,258.427 528.58,250.042C525.41,251.302 522.42,252.827 519.5,254.598C508.915,261.018 502.895,268.745 499.938,280.745C507.79,300.573 514.38,319.552 518.29,340.562C520.73,339.245 523.28,338.087 525.81,336.947C543.3,328.981 562.067,324.185 581.235,322.783C591.09,322.098 601.225,322.945 611.045,323.885C642.339,326.649 673.103,333.709 702.47,344.867C757.635,365.7 806.47,402.399 831.155,457.172C851.285,501.82 855.95,555.62 849.06,603.8C844.76,633.845 836.045,663.595 825.3,691.92C797.145,766.14 745.4,840.89 677.65,883.97C666.35,891.155 654.345,897.15 642.145,902.635C640.606,903.284 639.058,903.909 637.5,904.51C611.62,914.49 583.995,918.865 556.535,913.58C541.715,910.73 526.85,907.115 511.675,907.08C495.176,907.04 478.902,911.055 462.74,913.91C434.509,918.9 404.71,913.145 378.793,901.48C325.988,877.72 275.467,825.41 243.661,777.745C226.397,751.809 212.139,723.994 201.163,694.835C195.857,680.66 190.759,665.755 187.033,651.09C170.852,587.41 168.083,512.625 195.93,451.667C212.579,415.22 243.432,384.362 277.906,364.427C291.872,356.351 306.904,349.861 322.018,344.271C357.706,331.072 415.134,319.199 453.007,324.745C464.573,326.438 474.974,330.045 485.538,334.914C472.44,294.024 450.616,267.808 416.69,242.591C408.426,236.449 397.177,230.014 391.272,221.494C389.101,218.362 389.284,214.05 390.03,210.459C392.15,200.267 400.845,188.788 409.551,183.257C414.498,180.115 420.378,178.5 426.179,179.929C440.729,183.513 473.392,232.925 481.961,246.461C494.811,237.187 506.635,231.214 521.65,226.208C529.309,202.717 541.39,180.905 557.24,161.95C585.355,128.928 620.47,111.602 663.745,108.206Z" style="fill:rgb(48,91,105);fill-rule:nonzero;"/>
    </g>
    <g transform="matrix(1,0,0,1,-5,0)">
        <path d="M420.95,191.428C424.245,191.512 427.205,194.327 429.438,196.548C439.345,206.402 448.169,218.036 456.333,229.356C499.295,288.921 515.335,355.373 515.47,428.072C513.145,428.223 510.805,428.263 508.475,428.341L508.785,416.172C508.505,366.455 498.306,313.662 467.082,273.503C455.511,258.62 440.781,245.542 425.871,234.095C420.54,230.003 404.238,220.614 401.955,214.928C401.104,212.808 401.676,210.304 402.576,208.302C406.089,200.491 413.068,194.449 420.95,191.428Z" style="fill:rgb(211,223,226);fill-rule:nonzero;"/>
    </g>
    <g transform="matrix(1,0,0,1,-5,0)">
        <path d="M417.805,193.93L418.982,193.889L419.568,194.592C417.848,200.086 410.963,205.887 406.259,208.955C405.935,208.94 405.483,208.734 405.171,208.631L405,207.678C407.324,201.984 412.388,196.74 417.805,193.93Z" style="fill:rgb(48,91,105);fill-rule:nonzero;"/>
    </g>
    <g transform="matrix(1,0,0,1,-5,0)">
        <path d="M863.465,163.958L863.905,164.446C848.72,187.698 832.69,209.931 813.01,229.693C771.72,271.156 713.405,309.13 652.99,309.151C625.185,309.161 595.75,301.253 573.76,283.726C565.5,277.139 558.285,269.161 551.545,261.047C546.94,255.507 537.785,241.376 533.38,237.8C531.785,236.51 528.85,237.253 526.935,237.499C511.26,243.426 500.74,252.689 492.099,266.988L487.051,256.568C496.72,249.386 517.795,237.442 529.645,235.708C538.51,234.413 551.755,237.738 561.02,238.476C576.467,239.748 591.967,240.263 607.465,240.017C685.335,238.778 760.385,217.064 829.55,182.006C840.925,176.242 852.57,170.592 863.465,163.958Z" style="fill:rgb(211,223,226);fill-rule:nonzero;"/>
    </g>
    <g transform="matrix(1,0,0,1,-5,0)">
        <path d="M662.505,120.708C666.6,120.144 671.095,120.252 675.245,120.272C724.585,120.516 776.425,147.522 824.74,157.281C837.735,159.905 850.375,160.534 863.615,160.574C854.68,166.671 844.88,171.392 835.25,176.269C799.606,194.634 761.883,208.648 722.895,218.012C661.053,232.308 597.065,234.811 534.295,225.391C541.325,205.674 553.225,185.63 566.58,169.55C591.78,139.208 623.8,124.284 662.505,120.708Z" style="fill:rgb(211,223,226);fill-rule:nonzero;"/>
    </g>
    <g transform="matrix(1,0,0,1,-5,0)">
        <path d="M581,335.21C590.6,333.979 601.34,335.223 610.97,336.13C658.155,340.577 705.445,355.024 745.91,379.866C789.254,406.609 820.14,449.619 831.63,499.236C852.85,588.43 824.205,684.345 777.19,760.65C768.035,775.5 758.45,789.985 747.495,803.575C714.18,844.91 664.205,887.395 611.43,899.715C596.365,903.23 580.825,904.555 565.44,902.605C545.585,900.085 529.21,894.675 508.495,894.945C493.145,895.14 478.756,898.875 463.735,901.395C449.565,903.911 435.077,904.07 420.855,901.865C397.471,898.215 376.798,887.68 356.972,875.28C336.05,862.195 316.957,845.515 299.827,827.82C249.436,776.124 214.068,711.664 197.537,641.39C194.455,627.91 191.463,614.39 189.753,600.655C183.508,550.52 187.112,485.825 214.49,441.961C249.101,386.507 303.14,358.417 365.359,344.133C392.837,337.825 435.411,331.049 462.543,338.895C472.871,341.882 481.65,347.011 490.678,352.664C496.872,373.482 498.327,406.498 498.348,428.407C475.39,425.97 454.936,417.421 436.512,403.537C428.983,397.863 421.995,391.636 414.016,386.556C392.654,372.954 372.469,366.998 347.568,372.554C352.697,374.401 358.176,375.464 363.418,376.987C377.788,381.164 392.011,386.587 404.746,394.545C417.169,402.308 427.77,412.76 440.208,420.62C485.349,449.142 532.64,445.835 577.31,418.776C591.695,410.063 604.53,398.886 619.36,390.898C635.885,381.991 653.415,376.085 671.67,371.936C671.605,371.919 671.535,371.903 671.47,371.885C664.245,369.967 656.155,369.839 648.74,370.442C612.67,373.377 589.01,399.613 558.635,415.412C548.22,420.83 536.88,424.135 525.435,426.555C527.32,401.766 524.77,377.158 520.69,352.709C539.785,342.996 559.58,336.967 581,335.21Z" style="fill:rgb(211,223,226);fill-rule:nonzero;"/>
    </g>
    <g transform="matrix(1,0,0,1,-5,0)">
        <path d="M327.381,401.568C328.751,401.471 329.573,401.545 330.723,402.263L330.724,403.318C315.712,410.977 301.457,418.826 288.299,429.455C230.279,476.325 219.737,549.73 230.871,619.595C231.662,624.636 232.608,629.652 233.708,634.635C234.971,640.155 241.077,660.895 240.659,664.84L239.742,663.335C234.772,654.135 231.128,643.72 228.017,633.755C213.447,587.08 214.423,521.82 237.659,477.885C255.772,443.634 290.087,413.091 327.381,401.568Z" style="fill:rgb(48,91,105);fill-rule:nonzero;"/>
    </g>
</svg>
