<svg version="1.1" xmlns="http://www.w3.org/2000/svg" style="display: block;" viewBox="0 0 2048 2048" width="1024" height="1024">
<path transform="translate(0,0)" fill="rgb(211,223,226)" d="M 0 0 L 2048 0 L 2048 2048 L 0 2048 L 0 0 z"/>
<path transform="translate(0,0)" fill="rgb(48,91,105)" d="M 1327.49 216.412 C 1423.1 204.612 1564.58 273.833 1662.17 291.348 C 1682.13 294.929 1704.02 297.623 1724.33 295.845 C 1734.28 294.973 1744.52 291.941 1754.5 292.167 C 1757.78 292.242 1761.11 293.312 1763.27 295.895 C 1765.93 299.094 1767.47 303.389 1766.92 307.531 C 1765.64 317.194 1753.46 334.454 1748.3 343.103 C 1698.98 425.816 1636.46 490.49 1559.79 548.063 C 1472.28 613.77 1370.87 655.206 1260.04 639.369 C 1194.9 630.06 1138.19 599.8 1095 549.877 C 1081.25 533.976 1069.75 516.854 1057.16 500.085 C 1050.82 502.604 1044.84 505.653 1039 509.195 C 1017.83 522.036 1005.79 537.49 999.877 561.489 C 1015.58 601.145 1028.76 639.104 1036.58 681.123 C 1041.46 678.49 1046.56 676.175 1051.62 673.894 A 324.564 324.564 0 0 1 1162.47 645.565 C 1182.18 644.196 1202.45 645.89 1222.09 647.77 A 684.339 684.339 0 0 1 1404.94 689.734 C 1515.27 731.401 1612.94 804.798 1662.31 914.343 C 1702.57 1003.64 1711.9 1111.24 1698.12 1207.6 C 1689.52 1267.69 1672.09 1327.19 1650.6 1383.84 C 1594.29 1532.28 1490.8 1681.78 1355.3 1767.94 C 1332.7 1782.31 1308.69 1794.3 1284.29 1805.27 A 329.276 329.276 0 0 1 1275 1809.02 C 1223.24 1828.98 1167.99 1837.73 1113.07 1827.16 C 1083.43 1821.46 1053.7 1814.23 1023.35 1814.16 C 990.352 1814.08 957.804 1822.11 925.479 1827.82 C 869.017 1837.8 809.419 1826.29 757.586 1802.96 C 651.976 1755.44 550.934 1650.82 487.321 1555.49 A 821.567 821.567 0 0 1 402.327 1389.67 C 391.713 1361.32 381.518 1331.51 374.065 1302.18 C 341.704 1174.82 336.166 1025.25 391.859 903.334 C 425.158 830.439 486.864 768.724 555.811 728.854 C 583.744 712.702 613.807 699.721 644.036 688.541 C 715.412 662.144 830.268 638.397 906.014 649.49 C 929.145 652.877 949.948 660.09 971.075 669.828 C 944.879 588.047 901.232 535.615 833.379 485.181 C 816.853 472.897 794.354 460.028 782.544 442.989 C 778.201 436.724 778.567 428.099 780.06 420.918 C 784.299 400.534 801.689 377.576 819.103 366.514 C 828.997 360.229 840.756 357 852.357 359.858 C 881.459 367.026 946.784 465.85 963.922 492.922 C 989.622 474.374 1013.27 462.427 1043.3 452.417 A 387.652 387.652 0 0 1 1114.48 323.9 C 1170.71 257.856 1240.94 223.204 1327.49 216.412 z"/>
<path transform="translate(0,0)" fill="rgb(211,223,226)" d="M 841.901 382.856 C 848.49 383.025 854.41 388.653 858.877 393.096 C 878.689 412.804 896.338 436.073 912.666 458.711 C 998.589 577.841 1030.67 710.746 1030.94 856.144 C 1026.29 856.446 1021.61 856.526 1016.95 856.681 L 1017.57 832.344 C 1017.01 732.91 996.611 627.324 934.164 547.005 C 911.022 517.24 881.562 491.084 851.742 468.191 C 841.08 460.005 808.476 441.228 803.911 429.856 C 802.209 425.615 803.351 420.608 805.152 416.604 C 812.178 400.981 826.137 388.898 841.901 382.856 z"/>
<path transform="translate(0,0)" fill="rgb(48,91,105)" d="M 835.61 387.86 L 837.963 387.778 L 839.136 389.184 C 835.695 400.172 821.926 411.773 812.517 417.909 C 811.869 417.881 810.965 417.468 810.341 417.262 L 809.999 415.355 C 814.648 403.968 824.775 393.48 835.61 387.86 z"/>
<path transform="translate(0,0)" fill="rgb(211,223,226)" d="M 1726.93 327.915 L 1727.81 328.891 C 1697.44 375.396 1665.38 419.862 1626.02 459.385 C 1543.44 542.311 1426.81 618.26 1305.98 618.302 C 1250.37 618.322 1191.5 602.505 1147.52 567.451 C 1131 554.277 1116.57 538.321 1103.09 522.094 C 1093.88 511.014 1075.57 482.752 1066.76 475.6 C 1063.57 473.019 1057.7 474.505 1053.87 474.997 C 1022.52 486.852 1001.48 505.378 984.199 533.975 L 974.101 513.137 C 993.44 498.771 1035.59 474.884 1059.29 471.417 C 1077.02 468.825 1103.51 475.476 1122.04 476.953 A 948.833 948.833 0 0 0 1214.93 480.034 C 1370.67 477.556 1520.77 434.127 1659.1 364.013 C 1681.85 352.483 1705.14 341.183 1726.93 327.915 z"/>
<path transform="translate(0,0)" fill="rgb(211,223,226)" d="M 1325.01 241.416 C 1333.2 240.287 1342.19 240.504 1350.49 240.545 C 1449.17 241.031 1552.85 295.044 1649.48 314.561 C 1675.47 319.809 1700.75 321.068 1727.23 321.147 C 1709.36 333.341 1689.76 342.784 1670.5 352.538 A 1000.96 1000.96 0 0 1 1445.79 436.023 A 1009.52 1009.52 0 0 1 1068.59 450.782 C 1082.65 411.348 1106.45 371.259 1133.16 339.1 C 1183.56 278.415 1247.6 248.567 1325.01 241.416 z"/>
<path transform="translate(0,0)" fill="rgb(211,223,226)" d="M 1162 670.419 C 1181.2 667.958 1202.68 670.445 1221.94 672.26 C 1316.31 681.154 1410.89 710.048 1491.82 759.733 A 381.716 381.716 0 0 1 1663.26 998.472 C 1705.7 1176.86 1648.41 1368.69 1554.38 1521.3 C 1536.07 1551 1516.9 1579.97 1494.99 1607.15 C 1428.36 1689.82 1328.41 1774.79 1222.86 1799.43 C 1192.73 1806.46 1161.65 1809.11 1130.88 1805.21 C 1091.17 1800.17 1058.42 1789.35 1016.99 1789.89 C 986.29 1790.28 957.511 1797.75 927.47 1802.79 A 261.473 261.473 0 0 1 841.71 1803.73 C 794.941 1796.43 753.596 1775.36 713.943 1750.56 C 672.099 1724.39 633.914 1691.03 599.654 1655.64 A 794.977 794.977 0 0 1 395.074 1282.78 C 388.91 1255.82 382.926 1228.78 379.505 1201.31 C 367.015 1101.04 374.224 971.65 428.979 883.922 C 498.202 773.013 606.28 716.834 730.718 688.266 C 785.674 675.649 870.822 662.098 925.086 677.79 C 945.742 683.764 963.299 694.022 981.355 705.327 C 993.744 746.964 996.654 812.997 996.696 856.813 C 950.779 851.939 909.872 834.841 873.024 807.073 C 857.966 795.725 843.989 783.272 828.032 773.111 C 785.307 745.907 744.938 733.995 695.136 745.107 C 705.394 748.801 716.353 750.927 726.836 753.974 C 755.576 762.328 784.021 773.174 809.492 789.09 C 834.338 804.615 855.539 825.52 880.416 841.239 C 970.697 898.284 1065.28 891.669 1154.62 837.551 C 1183.39 820.126 1209.06 797.772 1238.72 781.795 C 1271.77 763.983 1306.83 752.17 1343.34 743.872 C 1343.21 743.838 1343.07 743.806 1342.94 743.77 C 1328.49 739.934 1312.31 739.677 1297.48 740.884 C 1225.34 746.754 1178.02 799.225 1117.27 830.823 C 1096.44 841.66 1073.76 848.269 1050.87 853.109 C 1054.64 803.532 1049.54 754.316 1041.38 705.418 C 1079.57 685.991 1119.16 673.933 1162 670.419 z"/>
<path transform="translate(0,0)" fill="rgb(48,91,105)" d="M 654.761 803.136 C 657.501 802.941 659.145 803.09 661.446 804.525 L 661.447 806.637 C 631.423 821.954 602.913 837.652 576.598 858.91 C 460.557 952.651 439.473 1099.46 461.742 1239.19 A 498.662 498.662 0 0 0 467.415 1269.27 C 469.942 1280.31 482.154 1321.79 481.317 1329.68 L 479.483 1326.67 C 469.543 1308.27 462.255 1287.44 456.033 1267.51 C 426.894 1174.16 428.845 1043.64 475.317 955.769 C 511.544 887.267 580.173 826.181 654.761 803.136 z"/>
</svg>